<svg width="169" height="58" viewBox="0 0 169 58" fill="none" xmlns="http://www.w3.org/2000/svg">
<g clip-path="url(#clip0_215_2284)">
<path d="M3.68036 2.50212L35.857 0.131856C39.8093 -0.206478 40.825 0.0216557 43.31 1.82352L53.5813 9.04066C55.2754 10.2819 55.8395 10.6202 55.8395 11.9716V51.5527C55.8395 54.0332 54.9362 55.5006 51.7747 55.7249L14.4091 57.9811C12.0366 58.0932 10.9065 57.7549 9.66406 56.1753L2.10061 46.3656C0.743763 44.5599 0.181641 43.2085 0.181641 41.6289V6.44612C0.181641 4.41806 1.08491 2.72639 3.68036 2.50212Z" fill="white"/>
<path fill-rule="evenodd" clip-rule="evenodd" d="M35.857 0.131856L3.68036 2.50212C1.08491 2.72639 0.181641 4.41806 0.181641 6.44612V41.6289C0.181641 43.2085 0.743763 44.5599 2.10061 46.3656L9.66406 56.1753C10.9065 57.7549 12.0366 58.0932 14.4091 57.9811L51.7747 55.7249C54.9343 55.5006 55.8395 54.0332 55.8395 51.5527V11.9716C55.8395 10.6898 55.3316 10.3205 53.8371 9.22626C53.7512 9.16447 53.6652 9.10261 53.5793 9.04066L43.31 1.82352C40.825 0.0216557 39.8093 -0.206478 35.857 0.131856ZM15.2543 11.3239C12.2033 11.5289 11.5113 11.5753 9.77842 10.1697L5.37255 6.67426C4.92479 6.22186 5.14964 5.65732 6.27776 5.54519L37.21 3.29092C39.8074 3.06472 41.1603 3.96759 42.176 4.75639L47.4813 8.59019C47.7081 8.70426 48.2721 9.37899 47.5937 9.37899L15.6497 11.2969L15.2543 11.3239ZM11.6974 51.2144V17.6131C11.6974 16.1457 12.149 15.469 13.502 15.3549L50.1911 13.2128C51.4355 13.1007 51.9977 13.8895 51.9977 15.3549V48.732C51.9977 50.1994 51.7709 51.4406 49.7395 51.5527L14.6301 53.5827C12.5987 53.6949 11.6974 53.0201 11.6974 51.2144ZM46.3551 19.4149C46.58 20.4299 46.3551 21.4449 45.3375 21.5609L43.6453 21.8954V46.7039C42.176 47.4927 40.8231 47.9432 39.693 47.9432C37.8865 47.9432 37.4348 47.3787 36.0818 45.6889L25.0158 28.3237V45.1244L28.5165 45.9151C28.5165 45.9151 28.5165 47.9451 25.6923 47.9451L17.9059 48.3956C17.6791 47.9432 17.9059 46.8161 18.6948 46.5918L20.7282 46.0292V23.8152L17.9059 23.5871C17.6791 22.5721 18.2432 21.1066 19.8249 20.9925L28.1792 20.4319L39.693 38.0213V22.4599L36.7583 22.1235C36.5315 20.8804 37.4348 19.9775 38.5629 19.8673L46.3551 19.4149Z" fill="black"/>
<path d="M80.4958 41.0852V25.7926H80.7613L91.8177 41.0852H95.299V18.6122H91.4281V33.8894H91.1625L80.1062 18.6122H76.6113V41.0833H80.4977L80.4958 41.0852ZM106.239 41.4294C111.347 41.4294 114.454 38.0963 114.454 32.567C114.454 27.0531 111.331 23.7046 106.239 23.7046C101.164 23.7046 98.0262 27.0686 98.0262 32.567C98.0262 38.0963 101.118 41.4294 106.239 41.4294ZM106.239 38.1891C103.539 38.1891 101.994 36.134 101.994 32.567C101.994 29.0154 103.539 26.9448 106.239 26.9448C108.926 26.9448 110.47 29.0154 110.47 32.567C110.47 36.134 108.941 38.1891 106.239 38.1891ZM117.991 19.8746V24.157H115.291V27.2406H117.991V36.538C117.991 39.8402 119.554 41.1645 123.473 41.1645C124.221 41.1645 124.94 41.0872 125.502 40.977V37.9552C125.033 38.0016 124.737 38.0325 124.19 38.0325C122.568 38.0325 121.849 37.2862 121.849 35.6042V27.2406H125.502V24.157H121.849V19.8727L117.991 19.8746ZM127.823 41.0852H131.68V24.0468H127.823V41.0852ZM129.743 21.2299C131.023 21.2299 132.054 20.1994 132.054 18.908C132.054 17.6146 131.025 16.5706 129.743 16.5706C128.48 16.5706 127.433 17.6146 127.433 18.908C127.433 20.1994 128.48 21.228 129.743 21.228V21.2299ZM142.261 41.4294C147.367 41.4294 150.474 38.0963 150.474 32.567C150.474 27.0531 147.351 23.7046 142.261 23.7046C137.185 23.7046 134.047 27.0686 134.047 32.567C134.047 38.0963 137.138 41.4294 142.261 41.4294ZM142.261 38.1891C139.559 38.1891 138.012 36.134 138.012 32.567C138.012 29.0154 139.559 26.9448 142.261 26.9448C144.946 26.9448 146.493 29.0154 146.493 32.567C146.493 36.134 144.961 38.1891 142.261 38.1891ZM152.779 41.0852H156.652V31.1653C156.652 28.6578 158.105 27.0686 160.414 27.0686C162.773 27.0686 163.864 28.3774 163.864 30.9778V41.0852H167.739V30.0594C167.739 25.9936 165.661 23.7046 161.852 23.7046C159.305 23.7046 157.588 24.8723 156.776 26.7728H156.51V24.0468H152.779V41.0852Z" fill="#111111"/>
</g>
<defs>
<clipPath id="clip0_215_2284">
<rect width="169" height="58" fill="white"/>
</clipPath>
</defs>
</svg>
