<svg width="155" height="38" viewBox="0 0 155 38" fill="none" xmlns="http://www.w3.org/2000/svg">
<g clip-path="url(#clip0_215_2318)">
<path fill-rule="evenodd" clip-rule="evenodd" d="M119.54 16.7402C119.079 19.8059 116.764 19.8059 114.526 19.8059H113.252L114.146 14.0821C114.2 13.7363 114.494 13.4814 114.841 13.4814H115.425C116.948 13.4814 118.387 13.4814 119.129 14.3597C119.573 14.8851 119.708 15.6639 119.54 16.7402ZM118.566 8.74219H110.124C109.547 8.74219 109.055 9.1671 108.965 9.74401L105.552 31.6431C105.484 32.075 105.814 32.4657 106.247 32.4657H110.578C110.982 32.4657 111.326 32.1682 111.389 31.7644L112.357 25.5562C112.447 24.9793 112.938 24.5544 113.515 24.5544H116.187C121.747 24.5544 124.956 21.8318 125.795 16.4362C126.173 14.0764 125.81 12.2221 124.718 10.9239C123.518 9.49681 121.39 8.74219 118.566 8.74219Z" fill="#2790C3"/>
<path fill-rule="evenodd" clip-rule="evenodd" d="M59.3299 16.7402C58.8686 19.8059 56.5542 19.8059 54.3161 19.8059H53.0425L53.9356 14.0821C53.9898 13.7363 54.2846 13.4814 54.6307 13.4814H55.2146C56.7382 13.4814 58.1777 13.4814 58.9194 14.3597C59.3637 14.8851 59.498 15.6639 59.3299 16.7402ZM58.356 8.74219H49.9139C49.3368 8.74219 48.8455 9.1671 48.7556 9.74401L45.3417 31.6431C45.2746 32.075 45.6046 32.4657 46.0368 32.4657H50.0676C50.6446 32.4657 51.1363 32.0408 51.2263 31.4643L52.1475 25.5562C52.237 24.9793 52.7287 24.5544 53.3058 24.5544H55.9772C61.5373 24.5544 64.7467 21.8318 65.5856 16.4362C65.9631 14.0764 65.6007 12.2221 64.5084 10.9239C63.3076 9.49681 61.1799 8.74219 58.356 8.74219Z" fill="#27346A"/>
<path fill-rule="evenodd" clip-rule="evenodd" d="M77.9541 24.602C77.5637 26.9388 75.73 28.5075 73.3914 28.5075C72.219 28.5075 71.2804 28.126 70.6771 27.4036C70.0792 26.6874 69.8542 25.6671 70.0435 24.531C70.4077 22.2153 72.2706 20.5958 74.5736 20.5958C75.7217 20.5958 76.6535 20.9812 77.2689 21.7101C77.8881 22.4444 78.1312 23.4716 77.9541 24.602ZM83.5875 16.6423H79.5453C79.1989 16.6423 78.9041 16.8968 78.8502 17.2434L78.6723 18.3869L78.3896 17.9723C77.5143 16.6868 75.5634 16.2573 73.6152 16.2573C69.1492 16.2573 65.3343 19.6812 64.5918 24.4834C64.2052 26.8789 64.7539 29.1681 66.0966 30.766C67.33 32.2342 69.0904 32.8453 71.1878 32.8453C74.7876 32.8453 76.784 30.5058 76.784 30.5058L76.6034 31.6423C76.5359 32.0745 76.8659 32.4657 77.2985 32.4657H80.9388C81.5159 32.4657 82.0072 32.0411 82.0972 31.4642L84.2825 17.4649C84.3501 17.0327 84.02 16.6423 83.5875 16.6423Z" fill="#27346A"/>
<path fill-rule="evenodd" clip-rule="evenodd" d="M138.164 24.602C137.773 26.9388 135.94 28.5075 133.602 28.5075C132.429 28.5075 131.491 28.126 130.887 27.4036C130.289 26.6874 130.064 25.6671 130.254 24.531C130.617 22.2153 132.48 20.5958 134.784 20.5958C135.931 20.5958 136.864 20.9812 137.479 21.7101C138.098 22.4444 138.341 23.4716 138.164 24.602ZM143.797 16.6423H139.755C139.409 16.6423 139.114 16.8968 139.06 17.2434L138.882 18.3869L138.6 17.9723C137.724 16.6868 135.773 16.2573 133.825 16.2573C129.359 16.2573 125.544 19.6812 124.802 24.4834C124.415 26.8789 124.964 29.1681 126.306 30.766C127.54 32.2342 129.3 32.8453 131.398 32.8453C134.997 32.8453 136.994 30.5058 136.994 30.5058L136.814 31.6423C136.746 32.0745 137.076 32.4657 137.509 32.4657H141.149C141.726 32.4657 142.217 32.0411 142.307 31.4642L144.492 17.4649C144.56 17.0327 144.23 16.6423 143.797 16.6423Z" fill="#2790C3"/>
<mask id="mask0_215_2318" style="mask-type:luminance" maskUnits="userSpaceOnUse" x="0" y="0" width="154" height="39">
<path d="M0.355469 38.0003H153.86V0.31543H0.355469V38.0003Z" fill="#27346A"/>
</mask>
<g mask="url(#mask0_215_2318)">
<path fill-rule="evenodd" clip-rule="evenodd" d="M105.116 16.6426H101.053C100.665 16.6426 100.301 16.8376 100.083 17.1627L94.4785 25.5138L92.103 17.4889C91.9547 16.9869 91.4979 16.6426 90.9796 16.6426H86.9856C86.5034 16.6426 86.1638 17.1224 86.3194 17.5841L90.7933 30.8695L86.5854 36.8766C86.2549 37.348 86.5884 38.0001 87.1594 38.0001H91.2186C91.6034 38.0001 91.9634 37.8093 92.1827 37.4892L105.695 17.7603C106.018 17.2882 105.684 16.6426 105.116 16.6426Z" fill="#27346A"/>
</g>
<mask id="mask1_215_2318" style="mask-type:luminance" maskUnits="userSpaceOnUse" x="0" y="0" width="155" height="38">
<path d="M0.333008 38H154.333V0H0.333008V38Z" fill="#2790C3"/>
</mask>
<g mask="url(#mask1_215_2318)">
<path fill-rule="evenodd" clip-rule="evenodd" d="M148.562 9.34366L145.098 31.6431C145.03 32.0753 145.36 32.4657 145.793 32.4657H149.277C149.855 32.4657 150.346 32.0408 150.436 31.4643L153.852 9.56514C153.919 9.13293 153.589 8.74219 153.157 8.74219H149.257C148.911 8.74219 148.616 8.99744 148.562 9.34366Z" fill="#2790C3"/>
</g>
<mask id="mask2_215_2318" style="mask-type:luminance" maskUnits="userSpaceOnUse" x="0" y="0" width="154" height="39">
<path d="M0.355469 38.0003H153.86V0.31543H0.355469V38.0003Z" fill="#27346A"/>
</mask>
<g mask="url(#mask2_215_2318)">
<path fill-rule="evenodd" clip-rule="evenodd" d="M16.3254 36.4479L17.4602 29.168L17.5334 28.7646C17.5881 28.4138 17.7656 28.0929 18.0331 27.8618C18.3006 27.6308 18.6417 27.5033 18.9934 27.5033H19.8945C21.3965 27.5033 22.7764 27.341 23.9962 27.0208C25.2975 26.6796 26.4551 26.148 27.4362 25.4421C28.4766 24.6936 29.3503 23.726 30.0336 22.5668C30.7545 21.3439 31.2838 19.8715 31.607 18.191C31.8927 16.7071 31.9462 15.3786 31.7668 14.2421C31.5767 13.0414 31.1195 12.017 30.4081 11.1963C29.9767 10.6993 29.4247 10.2686 28.7676 9.91622L28.752 9.90778L28.7516 9.88859C28.9812 8.40736 28.9725 7.17178 28.7255 6.10816C28.4773 5.04224 27.975 4.08303 27.1885 3.17641C25.559 1.2979 22.5951 0.345215 18.3795 0.345215H6.80199C6.415 0.345215 6.03939 0.485316 5.74497 0.739801C5.45055 0.994286 5.25554 1.3478 5.19484 1.73471L0.374131 32.6617C0.33012 32.9438 0.410174 33.2306 0.593806 33.4471C0.777437 33.6647 1.04454 33.7894 1.32681 33.7894H8.50931L8.50286 33.824L8.00963 36.9883C7.97169 37.2344 8.0415 37.4839 8.20123 37.6727C8.36096 37.862 8.59353 37.971 8.83939 37.971H14.8636C15.2016 37.971 15.529 37.8485 15.7859 37.6263C16.0427 37.404 16.2135 37.0958 16.2662 36.7584L16.3254 36.4479Z" fill="#27346A"/>
</g>
<path fill-rule="evenodd" clip-rule="evenodd" d="M12.1983 9.92817C12.2746 9.43801 12.5853 9.0369 13.0038 8.83385C13.1943 8.74173 13.4067 8.69029 13.6295 8.69029H22.7044C23.7796 8.69029 24.782 8.76169 25.6987 8.911C25.9605 8.95361 26.215 9.00274 26.4628 9.0584C26.7105 9.11405 26.9507 9.17585 27.1833 9.24494C27.2997 9.2791 27.4139 9.31518 27.5266 9.35318C27.9766 9.50442 28.3955 9.68252 28.7809 9.88902C29.2355 6.95765 28.7779 4.96284 27.2106 3.15611C25.4851 1.16706 22.3679 0.314941 18.3796 0.314941H6.80208C5.98712 0.314941 5.29319 0.914881 5.16609 1.72939L0.345388 32.6564C0.250158 33.2667 0.716445 33.8183 1.32691 33.8183H8.47411L12.1983 9.92817Z" fill="#27346A"/>
<path fill-rule="evenodd" clip-rule="evenodd" d="M28.7815 9.88916C28.747 10.1129 28.7087 10.3406 28.6632 10.5751C27.1368 18.5056 21.9132 21.2473 15.2418 21.2473H11.8446C11.0296 21.2473 10.3414 21.8476 10.2143 22.6622L7.98148 36.9835C7.89839 37.5171 8.30625 37.9999 8.84007 37.9999H14.8646C15.5775 37.9999 16.1846 37.4752 16.2957 36.7625L16.3549 36.4527L17.4897 29.172L17.5629 28.7698C17.6741 28.057 18.2812 27.5323 18.9941 27.5323H19.8951C25.7315 27.5323 30.3014 25.1333 31.6369 18.1958C32.1947 15.2971 31.9063 12.8773 30.4308 11.1762C29.9846 10.6618 29.4292 10.2361 28.7815 9.88916Z" fill="#2790C3"/>
<path fill-rule="evenodd" clip-rule="evenodd" d="M27.1835 9.24508C26.9509 9.17599 26.7107 9.11419 26.463 9.05853C26.2152 9.00287 25.9606 8.95374 25.6989 8.91114C24.7822 8.76182 23.7798 8.69043 22.7046 8.69043H13.6296C13.4069 8.69043 13.1945 8.74186 13.004 8.83399C12.5855 9.03704 12.2748 9.43815 12.1985 9.92831L10.2696 22.301L10.2139 22.6621C10.341 21.8476 11.0292 21.2473 11.8442 21.2473H15.2413C21.9128 21.2473 27.1364 18.5056 28.6628 10.5751C28.7083 10.3406 28.7466 10.1129 28.7811 9.88916C28.3957 9.68265 27.9768 9.50455 27.5268 9.35332C27.4141 9.31532 27.2999 9.27924 27.1835 9.24508Z" fill="#1F264F"/>
</g>
<defs>
<clipPath id="clip0_215_2318">
<rect width="154" height="38" fill="white" transform="translate(0.333008)"/>
</clipPath>
</defs>
</svg>
