<svg width="140" height="56" viewBox="0 0 140 56" fill="none" xmlns="http://www.w3.org/2000/svg">
<g clip-path="url(#clip0_215_2303)">
<path fill-rule="evenodd" clip-rule="evenodd" d="M0 56H140V0H0V56Z" fill="white"/>
<path fill-rule="evenodd" clip-rule="evenodd" d="M79.1636 12.5669V41.5509H75.0216V39.6789C73.9656 40.8589 73.1526 41.7959 71.0816 41.7959C69.4176 41.7959 68.1986 41.1839 67.4686 39.8409C66.9806 38.9449 66.7786 37.6829 66.7786 35.4029V27.5469C66.7786 24.5769 66.8986 23.3949 67.4276 22.5409C68.1186 21.4419 69.1336 20.6679 71.1216 20.6679C72.7466 20.6679 74.0466 21.4419 74.9406 22.7859H75.0206V12.5669H79.1636ZM64.4996 20.9129V41.5509H60.3556V39.5559H60.2756C59.4226 40.8579 58.2856 41.7959 56.3766 41.7959C54.3066 41.7959 52.1116 40.4499 52.1116 36.7459V24.1519H56.2546V35.2019C56.2546 36.7069 56.9846 37.6419 58.2866 37.6419C59.8286 37.6419 60.3566 36.6249 60.3566 34.7929V20.9129H64.4996ZM94.1876 20.6679C97.6396 20.6679 100.402 22.8649 100.402 27.1809V41.5509H96.2586V39.4339H96.1766C95.0806 40.9399 94.1876 41.7939 92.1966 41.7939C90.2876 41.7939 87.7306 40.8579 87.7306 36.2989C87.7306 31.5789 89.0706 29.2969 94.2676 29.2969C94.8376 29.2969 95.4056 29.3779 96.2576 29.4189V27.2629C96.2576 25.8779 95.7296 24.8189 94.1876 24.8189C93.1326 24.8189 92.0766 25.5539 91.8316 26.8959H87.8106C87.9336 25.0649 88.5826 23.5179 89.6786 22.4179C90.7766 21.3189 92.3186 20.6679 94.1876 20.6679ZM122.32 14.6439V20.9129H124.878V24.1529H122.32V35.6079C122.32 37.5189 123.05 37.6419 124.878 37.6419V41.5509H123.173C119.438 41.5509 118.178 38.9039 118.178 36.7069V14.6439H122.32ZM18.7846 12.5669V35.4849C18.7846 37.0319 19.2316 37.4799 20.8146 37.6419V41.5509C16.9976 41.5509 14.6426 40.5739 14.6426 35.7689V12.5669H18.7846ZM41.6116 12.5669V16.4749H33.4096V24.1519H41.6116V28.0969H33.4096V37.3979H41.6116V41.5509H29.2666V12.5669H41.6116ZM47.9856 14.6439V35.6079C47.9856 37.5189 48.7176 37.6429 50.5436 37.6429V41.5509H48.8396C45.1036 41.5509 43.8446 38.9039 43.8446 36.7069V14.6439H47.9856ZM85.7286 20.9139V41.5499H81.5886V20.9129L85.7286 20.9139ZM110.801 20.6679C111.296 20.6679 111.797 20.7449 112.275 20.9129C113.484 21.3369 114.535 22.3409 114.915 24.1529C115.012 24.6189 115.065 25.1379 115.065 25.7149V41.5509H110.924V27.2629C110.924 25.7549 110.192 24.8189 108.893 24.8189C107.35 24.8189 106.822 25.8389 106.822 27.6689V41.5509H102.68V20.9129H106.822V22.9079H106.904C107.756 21.6039 108.893 20.6679 110.801 20.6679ZM95.1206 32.5539C93.3346 32.5539 91.8726 33.2869 91.8726 35.4839C91.8726 37.0719 92.6856 38.1309 94.0246 38.1309C95.4056 38.1309 96.2586 37.1529 96.2586 35.4849V32.6749C95.8126 32.5949 95.4856 32.5539 95.1206 32.5539ZM72.9506 24.8189C71.3666 24.8189 70.9186 25.9589 70.9186 27.2629V34.8329C70.9186 36.5029 71.5286 37.6429 72.9496 37.6429C74.2096 37.6429 75.0216 36.5839 75.0216 35.0789V27.0589C75.0216 25.7549 74.1296 24.8189 72.9506 24.8189ZM26.0956 12.5669V16.7199L21.9536 19.7319V12.5669H26.0956Z" fill="#DC281E"/>
<path fill-rule="evenodd" clip-rule="evenodd" d="M81.5879 16.7069H100.402V12.5669H81.5879V16.7069ZM122.32 20.9129H112.275C113.484 21.3369 114.535 22.3409 114.915 24.1529H122.321L122.32 20.9129Z" fill="#00A0E1"/>
<path fill-rule="evenodd" clip-rule="evenodd" d="M41.6123 24.1521H56.2553V20.9131H41.6123V24.1521Z" fill="#F0CD00"/>
</g>
<defs>
<clipPath id="clip0_215_2303">
<rect width="140" height="56" fill="white"/>
</clipPath>
</defs>
</svg>
