<svg width="105" height="34" viewBox="0 0 105 34" fill="none" xmlns="http://www.w3.org/2000/svg">
<g clip-path="url(#clip0_215_2310)">
<path d="M13.111 11.6025V15.0875H21.4542C21.1988 17.0425 20.5461 18.4733 19.5529 19.4792C18.3326 20.6975 16.4313 22.0292 13.111 22.0292C7.97449 22.0292 3.95895 17.8925 3.95895 12.7642C3.95895 7.63583 7.97449 3.49917 13.111 3.49917C15.8779 3.49917 17.9069 4.59 19.3968 5.9925L21.8515 3.54167C19.7799 1.53 16.9988 0 13.111 0C6.07314 0 0.15625 5.72333 0.15625 12.75C0.15625 19.7767 6.07314 25.5 13.111 25.5C16.9137 25.5 19.7799 24.2533 22.0218 21.93C24.3204 19.635 25.0441 16.3908 25.0441 13.7842C25.0441 12.9767 24.9873 12.2258 24.8596 11.6025H13.111Z" fill="#4285F4"/>
<path d="M35.4725 8.76953C30.9178 8.76953 27.2002 12.2262 27.2002 17.0004C27.2002 21.732 30.9178 25.2312 35.4725 25.2312C40.0272 25.2312 43.7448 21.7462 43.7448 17.0004C43.7448 12.2262 40.0272 8.76953 35.4725 8.76953ZM35.4725 21.987C32.9752 21.987 30.8184 19.9329 30.8184 17.0004C30.8184 14.0395 32.9752 12.0137 35.4725 12.0137C37.9698 12.0137 40.1265 14.0395 40.1265 17.0004C40.1265 19.9329 37.9698 21.987 35.4725 21.987Z" fill="#EA4335"/>
<path d="M76.0259 10.6107H75.8982C75.0894 9.64738 73.5286 8.76904 71.5563 8.76904C67.4414 8.76904 63.8516 12.3532 63.8516 16.9999C63.8516 21.6182 67.4414 25.2307 71.5563 25.2307C73.5286 25.2307 75.0894 24.3524 75.8982 23.3607H76.0259V24.5082C76.0259 27.6532 74.3374 29.339 71.6272 29.339C69.4137 29.339 68.0374 27.7524 67.4698 26.4065L64.3198 27.7099C65.2279 29.8915 67.6259 32.569 71.6272 32.569C75.8698 32.569 79.4597 30.0757 79.4597 23.9982V9.19404H76.0259V10.6107ZM71.8685 21.9865C69.3712 21.9865 67.4698 19.8615 67.4698 16.9999C67.4698 14.0957 69.3712 12.0132 71.8685 12.0132C74.3374 12.0132 76.2671 14.1382 76.2671 17.0282C76.2813 19.904 74.3374 21.9865 71.8685 21.9865Z" fill="#4285F4"/>
<path d="M53.9188 8.76904C49.3641 8.76904 45.6465 12.2257 45.6465 16.9999C45.6465 21.7315 49.3641 25.2307 53.9188 25.2307C58.4735 25.2307 62.1911 21.7457 62.1911 16.9999C62.1911 12.2257 58.4735 8.76904 53.9188 8.76904ZM53.9188 21.9865C51.4215 21.9865 49.2647 19.9324 49.2647 16.9999C49.2647 14.039 51.4215 12.0132 53.9188 12.0132C56.4161 12.0132 58.5728 14.039 58.5728 16.9999C58.5728 19.9324 56.4161 21.9865 53.9188 21.9865Z" fill="#FBBC05"/>
<path d="M82.2969 0.339844H85.8584V25.2307H82.2969V0.339844Z" fill="#34A853"/>
<path d="M96.8556 21.9865C95.011 21.9865 93.7056 21.1507 92.8542 19.4932L103.879 14.9457L103.51 14.0107C102.829 12.169 100.729 8.76904 96.4583 8.76904C92.2157 8.76904 88.6826 12.0982 88.6826 16.9999C88.6826 21.6182 92.1732 25.2307 96.8556 25.2307C100.63 25.2307 102.815 22.9215 103.723 21.5899L100.914 19.7199C99.9772 21.0799 98.7002 21.9865 96.8556 21.9865ZM96.6002 11.8574C98.0617 11.8574 99.3103 12.6082 99.7218 13.6707L92.2725 16.7449C92.2725 13.2882 94.7272 11.8574 96.6002 11.8574Z" fill="#EA4335"/>
</g>
<defs>
<clipPath id="clip0_215_2310">
<rect width="105" height="34" fill="white"/>
</clipPath>
</defs>
</svg>
