<svg width="214" height="69" viewBox="0 0 214 69" fill="none" xmlns="http://www.w3.org/2000/svg">
<path fill-rule="evenodd" clip-rule="evenodd" d="M164.333 38.3394C164.333 45.8833 158.144 51.9989 150.51 51.9989C142.875 51.9989 136.686 45.8833 136.686 38.3394C136.686 30.7955 142.875 24.6799 150.51 24.6799C158.144 24.6799 164.333 30.7955 164.333 38.3394ZM158.663 38.3393C158.663 42.7919 155.016 46.3954 150.51 46.3954C146.004 46.3954 142.357 42.7919 142.357 38.3393C142.357 33.8868 146.004 30.2833 150.51 30.2833C155.016 30.2833 158.663 33.8868 158.663 38.3393Z" fill="#888888"/>
<path fill-rule="evenodd" clip-rule="evenodd" d="M135.026 38.3394C135.026 45.8833 128.837 51.9989 121.202 51.9989C113.567 51.9989 107.378 45.8833 107.378 38.3394C107.378 30.7955 113.567 24.6799 121.202 24.6799C128.837 24.6799 135.026 30.7955 135.026 38.3394ZM129.355 38.3393C129.355 42.7919 125.708 46.3954 121.202 46.3954C116.696 46.3954 113.049 42.7919 113.049 38.3393C113.049 33.8868 116.696 30.2833 121.202 30.2833C125.708 30.2833 129.355 33.8868 129.355 38.3393Z" fill="#888888"/>
<path fill-rule="evenodd" clip-rule="evenodd" d="M106.099 38.3394V38.2262C106.118 38.1884 106.118 38.1318 106.118 38.0941V18.718C106.118 17.2276 104.877 16.0012 103.368 16.0012C103.007 15.9997 102.649 16.069 102.315 16.205C101.98 16.341 101.677 16.5411 101.421 16.7936C101.165 17.0462 100.963 17.3463 100.825 17.6766C100.688 18.0069 100.618 18.3608 100.619 18.718V27.4344C98.2896 25.7176 95.4065 24.6799 92.2752 24.6799C84.6379 24.6799 78.4517 30.7927 78.4517 38.3394C78.4517 45.886 84.6379 51.9988 92.2752 51.9988C99.9126 51.9988 106.099 45.886 106.099 38.3394ZM100.428 38.3394C100.428 42.7887 96.778 46.3955 92.2753 46.3955C87.7726 46.3955 84.1224 42.7887 84.1224 38.3394C84.1224 33.8902 87.7726 30.2834 92.2753 30.2834C96.778 30.2834 100.428 33.8902 100.428 38.3394Z" fill="#888888"/>
<path d="M63.3335 52C71.0655 52 77.3335 45.732 77.3335 38C77.3335 30.268 71.0655 24 63.3335 24C55.6015 24 49.3335 30.268 49.3335 38C49.3335 45.732 55.6015 52 63.3335 52Z" fill="#9C5789"/>
<path d="M63.8335 46C68.5279 46 72.3335 42.6421 72.3335 38.5C72.3335 34.3579 68.5279 31 63.8335 31C59.1391 31 55.3335 34.3579 55.3335 38.5C55.3335 42.6421 59.1391 46 63.8335 46Z" fill="white"/>
</svg>
