<svg width="148" height="50" viewBox="0 0 148 50" fill="none" xmlns="http://www.w3.org/2000/svg">
<path fill-rule="evenodd" clip-rule="evenodd" d="M46.0555 23.9125C48.2621 22.6297 49.5085 20.4859 49.7743 17.525C50.0011 14.9312 49.216 12.9141 47.4286 11.5328C45.6833 10.1828 43.5128 9.5 40.9793 9.5H32.6254L32.5957 9.50156C32.0223 9.50382 31.4614 9.66911 30.9787 9.97813C30.6889 10.1597 30.4297 10.3859 30.2108 10.6484C29.7919 11.1114 29.5341 11.6974 29.4758 12.3187L27.2474 37.3844C27.1864 38.0656 27.3709 38.6609 27.7697 39.1703C27.9307 39.3828 28.1122 39.5734 28.3327 39.7281C28.7611 40.0313 29.2663 40.1875 29.8386 40.2C29.848 40.2 29.8574 40.2031 29.8652 40.2047C29.8755 40.207 29.886 40.208 29.8965 40.2078H39.8252C42.6464 40.2078 45.1579 39.4969 47.2894 38.0906C49.4772 36.65 50.7095 34.5141 50.9566 31.7469C51.1442 29.6688 50.7376 27.8906 49.7524 26.475C48.9346 25.2938 47.6929 24.4281 46.0555 23.9125ZM34.6896 14.3906H39.7158C41.0325 14.3906 42.1022 14.7281 42.8841 15.3906C43.6504 16.0359 43.9756 16.9359 43.8693 18.1391C43.7379 19.5609 43.25 20.5938 42.4118 21.2141C41.5251 21.8719 40.5008 22.1906 39.2842 22.1906H33.9953L34.6896 14.3906ZM43.3783 34.2922C42.2914 34.9719 40.9043 35.3109 39.2529 35.3109H32.8302L33.523 27.4859H40.1693C41.9411 27.4859 43.2891 27.6 44.0789 28.2953C44.9077 29.0266 45.2236 29.9156 45.1172 31.1344C44.9843 32.6172 44.4151 33.6547 43.3783 34.2922ZM15.3669 14.0156C16.299 14.0156 17.0793 14.4797 17.5 15.1875C17.7674 15.6172 17.8785 16.1094 17.8315 16.6688C17.8315 16.6688 17.8253 19.9469 13.7531 19.9469C13.2542 19.9469 12.1423 19.925 12.1423 19.925L12.4301 16.6688C12.466 16.2984 12.5677 15.9547 12.735 15.6375C12.986 15.1547 13.3633 14.7489 13.8268 14.4633C14.2902 14.1777 14.8225 14.023 15.3669 14.0156ZM22.6043 21.8219C23.0109 21.8219 23.3722 21.9094 23.699 22.0656C24.5935 22.4812 25.1643 23.4016 25.0705 24.475C24.9704 25.5781 24.2057 26.5219 23.2033 26.9281C22.8631 27.0623 22.5009 27.1323 22.1352 27.1344H16.8995L16.4413 32.2797C16.4085 32.6813 16.2849 33.0437 16.0972 33.3781C15.5906 34.2937 14.596 34.9406 13.506 34.9406C12.3894 34.9406 11.4886 34.2687 11.1634 33.3187C11.0505 32.9847 11.0105 32.6304 11.0461 32.2797L11.5043 27.1344H6.26545C5.89013 27.1344 5.54453 27.0563 5.23332 26.9234C4.30128 26.5219 3.70859 25.5781 3.80398 24.4734C3.88687 23.5594 4.42952 22.75 5.19423 22.2734C5.65399 21.9766 6.17006 21.8219 6.73929 21.8219H22.6043ZM57.3276 19.9906C59.2129 19.2603 61.2169 18.8842 63.2389 18.8812C66.071 18.8812 68.1603 19.6656 69.4473 21.2219C70.5107 22.5375 70.9423 24.4031 70.7296 26.7687L69.7726 37.5656C69.7101 38.2837 69.3654 38.9478 68.814 39.4125C68.2772 39.8981 67.5786 40.1666 66.8545 40.1656C65.8677 40.1656 65.1343 39.7969 64.7152 39.1031C63.1482 39.8094 61.3138 40.1656 59.248 40.1656C57.2588 40.1656 55.5777 39.6031 54.2594 38.4937C52.9145 37.3656 52.3171 35.7922 52.4923 33.825C52.7159 31.3094 54.2688 29.475 57.1071 28.3797C58.8805 27.6922 61.5797 27.1984 65.3516 26.8766L65.361 26.7672C65.4658 25.5922 65.3 24.7031 64.8684 24.1281C64.3742 23.4875 63.5579 23.1734 62.3772 23.1734C61.2513 23.1734 60.0393 23.4375 58.7742 23.9547C57.19 24.6063 56.6521 24.6797 56.3846 24.6797C55.7951 24.6797 55.3134 24.4813 54.9569 24.0984C54.5972 23.7125 54.4408 23.2219 54.4924 22.6391C54.5862 21.5859 55.5386 20.6937 57.3276 19.9906ZM61.0151 36.0406C62.2177 36.0406 63.4281 35.7313 64.6198 35.1125L64.9998 30.8125C61.6594 31.0359 57.875 31.7344 57.6967 33.7344C57.6294 34.4641 57.8922 35.0109 58.4942 35.4C59.1464 35.8266 59.9955 36.0406 61.0151 36.0406ZM83.6031 18.8812C82.0843 18.8825 80.5761 19.1327 79.1384 19.6219L79.8061 12.1437C79.8421 11.7709 79.7885 11.3949 79.6497 11.0469C79.3057 10.1359 78.4378 9.50469 77.354 9.50469C76.4267 9.50469 75.5681 9.9625 75.0239 10.6672C74.6814 11.0984 74.4828 11.5891 74.4359 12.1437L72.2372 36.8313C72.0964 38.4484 72.8393 39.4828 74.4 39.8156C75.6276 40.0469 77.2805 40.1656 79.3041 40.1656C83.6797 40.1656 87.1076 38.9406 89.4987 36.5297C91.3003 34.7328 92.3449 32.3734 92.5967 29.5188C92.8797 26.3219 92.201 23.7344 90.5856 21.8203C88.9279 19.8672 86.5791 18.8812 83.6031 18.8812ZM85.5313 33.4969C84.2349 34.9187 82.4599 35.6156 80.1017 35.6156C79.1321 35.6156 78.3345 35.5812 77.7231 35.5266L78.7271 24.2531C79.8459 23.7679 81.0526 23.5174 82.2723 23.5172C83.8173 23.5172 85.0262 24.0203 85.9567 25.0578C86.9059 26.1625 87.3047 27.6688 87.142 29.5188C86.9966 31.1328 86.4555 32.4719 85.5313 33.4969ZM101.101 19.6219C102.537 19.1326 104.044 18.8824 105.561 18.8812C108.534 18.8812 110.887 19.8656 112.543 21.8203C114.17 23.7344 114.842 26.3219 114.559 29.5188C114.304 32.375 113.264 34.7328 111.46 36.5297C109.065 38.9406 105.634 40.1656 101.268 40.1656C99.2351 40.1656 97.5869 40.0469 96.3593 39.8156C94.8001 39.4828 94.0526 38.4484 94.2012 36.8313L96.3921 12.1437C96.4421 11.5891 96.6423 11.1 96.9817 10.6734C97.2552 10.314 97.6073 10.0218 98.0112 9.81928C98.415 9.61671 98.8599 9.5091 99.3118 9.50469C100.406 9.50469 101.279 10.1453 101.62 11.0594C101.745 11.3906 101.798 11.7516 101.764 12.1437L101.101 19.6219ZM102.063 35.6156C104.419 35.6156 106.194 34.9187 107.494 33.4969C108.416 32.4703 108.957 31.1328 109.101 29.5188C109.266 27.6688 108.867 26.1625 107.913 25.0578C106.987 24.0203 105.781 23.5172 104.233 23.5172C103.006 23.5172 101.814 23.7672 100.688 24.2531L99.6855 35.5266C100.295 35.5812 101.09 35.6156 102.063 35.6156ZM127.553 18.8812C124.375 18.8812 121.72 19.8656 119.659 21.8156C117.573 23.7844 116.379 26.2937 116.118 29.2656C115.837 32.4375 116.572 35.0469 118.306 37.0141C120.089 39.1031 122.758 40.1656 126.225 40.1656C128.463 40.1656 130.576 39.7625 132.509 38.9625C134.112 38.2828 134.97 37.4125 135.064 36.3609C135.096 36.0826 135.073 35.8006 134.995 35.5315C134.916 35.2624 134.785 35.0116 134.609 34.7937C134.13 34.2016 133.48 33.9625 132.551 34.1812C132.327 34.2359 132.129 34.3172 131.961 34.4094C131.793 34.5056 131.618 34.5912 131.439 34.6656L131.154 34.7953C131.015 34.8594 130.892 34.9172 130.785 34.9609C129.519 35.5078 128.221 35.7859 126.923 35.7859C125.031 35.7859 123.654 35.1969 122.7 34C122.091 33.2344 121.734 32.2906 121.643 31.175H133.625C134.459 31.175 135.161 30.8937 135.705 30.3344C136.235 29.7922 136.54 29.1016 136.614 28.275C136.848 25.6453 136.195 23.4313 134.665 21.6813C132.937 19.8219 130.548 18.8812 127.553 18.8812ZM121.973 27.2656C122.208 26.2594 122.668 25.4 123.346 24.7031C124.308 23.7609 125.57 23.3 127.2 23.3C128.654 23.3 129.738 23.7328 130.499 24.6125C131.09 25.3516 131.384 26.2188 131.392 27.2656H121.973ZM145.413 10.6688C145.676 11.0984 145.789 11.5906 145.74 12.1437L143.479 37.5656C143.445 37.9494 143.329 38.3214 143.138 38.6562C142.631 39.5672 141.645 40.2078 140.559 40.2078C139.449 40.2078 138.55 39.5422 138.226 38.5938C138.115 38.2631 138.075 37.9128 138.109 37.5656L140.369 12.1437C140.403 11.7766 140.505 11.4312 140.672 11.1156C141.165 10.1719 142.178 9.50469 143.29 9.50469C144.219 9.50469 144.994 9.96563 145.413 10.6688Z" fill="#FF790F"/>
</svg>
