<svg width="171" height="76" viewBox="0 0 171 76" fill="none" xmlns="http://www.w3.org/2000/svg">
<path fill-rule="evenodd" clip-rule="evenodd" d="M92.5017 37.2691C92.5017 37.2691 91.1267 36.4263 90.2765 36.1002C90.2765 36.1002 87.6448 34.8911 87.1227 34.3158C87.1227 34.3158 86.097 33.3576 86.6976 32.2446C86.6976 32.2446 86.9489 31.5164 88.0328 31.5164C88.0328 31.5164 89.444 31.5933 89.444 32.743V34.3648H94.501L94.4922 31.9762C94.4922 31.9762 94.8811 28.0647 88.5356 27.8925C88.5356 27.8925 83.5446 27.5673 82.1132 30.2321C82.1132 30.2321 81.5514 30.8266 81.5514 32.8969V34.3927C81.5514 34.3927 81.4941 36.1186 82.3831 37.2306C82.3831 37.2306 82.8858 37.9598 84.1241 38.7641C84.1241 38.7641 86.6385 40.1061 88.1475 40.8746C88.1475 40.8746 89.6706 41.7366 89.4704 43.1084C89.4704 43.1084 89.3461 44.5168 87.875 44.4591C87.875 44.4591 86.53 44.3997 86.53 43.0183V41.3974H81.1413V43.7519C81.1413 43.7519 80.9905 48.2544 87.9147 48.2544C87.9147 48.2544 94.531 48.3873 94.8397 43.6338V41.7165C94.8388 41.7165 95.0734 38.8035 92.5017 37.2691ZM66.6113 28.4529L64.918 38.9722H64.522L62.9045 28.5473H54.4572L54.0339 47.5969H59.0354L59.0954 33.2439H59.4887L62.1399 47.5943H67.4015L70.02 33.2492H70.3684L70.4892 47.5969H75.5172L74.9757 28.4529H66.6113ZM36.8386 28.5325L33.5111 47.5751H38.8953L40.8665 32.8103H41.3092L43.2795 47.5751H48.6629L45.3362 28.5325H36.8386ZM149.817 37.0068V39.8159H151.199V42.8312C151.199 44.3053 149.928 44.3324 149.928 44.3324C148.383 44.3324 148.441 42.9318 148.441 42.9318V32.5017C148.441 31.4272 149.812 31.3695 149.812 31.3695C151.128 31.3695 151.137 32.6512 151.137 32.6512V34.2371H156.206C156.372 31.1413 155.749 30.3921 155.749 30.3921C154.492 27.5926 149.735 27.7456 149.735 27.7456C142.424 27.7456 143.235 33.306 143.235 33.306V43.3908C143.392 48.6058 150.596 48.076 150.718 48.0716C153.922 47.7202 154.889 46.7104 154.889 46.7104C155.78 46.0547 156.01 45.1463 156.01 45.1463C156.264 44.6174 156.328 42.9318 156.328 42.9318V37.0068H149.817ZM133.014 40.1061H132.793L127.649 28.4582H121.494V47.5987H126.503L126.203 35.9524H126.427L131.757 47.5987H137.725V28.4564H132.652L133.014 40.1061ZM109.266 42.8295C109.266 42.8295 109.338 44.4006 107.869 44.4006C107.869 44.4006 106.323 44.4827 106.323 42.8688L106.308 28.4695H100.813V42.7543C100.813 42.7543 100.25 48.1608 107.946 48.1608C107.946 48.1608 114.635 48.2395 114.635 43.0026V28.4704H109.266V42.8295ZM26.3638 37.2691C26.3638 37.2691 24.9906 36.4263 24.1395 36.1011C24.1395 36.1011 21.5096 34.8928 20.9875 34.3167C20.9875 34.3167 19.9618 33.3567 20.5633 32.2464C20.5633 32.2464 20.8137 31.5181 21.8967 31.5181C21.8967 31.5181 23.3087 31.5942 23.3087 32.7439V34.3656H28.3676L28.3579 31.9762C28.3579 31.9762 28.7442 28.0647 22.4012 27.8934C22.4012 27.8934 21.9232 27.8628 21.2221 27.8977C21.2221 27.8977 17.3794 28.1023 16.0054 30.1918C15.9974 30.2076 15.986 30.219 15.978 30.2329C15.978 30.2329 15.4171 30.8266 15.4171 32.8977V34.3936C15.4171 34.3936 15.3589 36.1194 16.2488 37.2315C16.2488 37.2315 16.7515 37.9607 17.9897 38.765C17.9897 38.765 20.5033 40.107 22.0123 40.8755C22.0123 40.8755 23.5372 41.7358 23.3352 43.1093C23.3352 43.1093 23.2108 44.5177 21.7406 44.46C21.7406 44.46 20.3957 44.4006 20.3957 43.0192V41.3974H15.0061V43.7536C15.0061 43.7536 14.8553 48.2561 21.7795 48.2561C21.7795 48.2561 28.394 48.389 28.7054 43.6356V41.72C28.7054 41.7183 28.9364 38.8035 26.3638 37.2691Z" fill="#1A1817"/>
</svg>
