<svg width="184" height="42" viewBox="0 0 184 42" fill="none" xmlns="http://www.w3.org/2000/svg">
<g clip-path="url(#clip0_215_2346)">
<rect width="184" height="41" transform="translate(0 0.5)" fill="white"/>
<path fill-rule="evenodd" clip-rule="evenodd" d="M181.403 17.6938C181.063 17.6941 180.726 17.6259 180.412 17.493C180.098 17.3601 179.812 17.1652 179.572 16.9195C179.332 16.6737 179.141 16.3819 179.012 16.0609C178.882 15.7398 178.816 15.3958 178.817 15.0486C178.817 14.3471 179.09 13.6742 179.576 13.1782C180.062 12.6821 180.721 12.4034 181.409 12.4034C182.096 12.4034 182.755 12.6821 183.241 13.1782C183.727 13.6742 184 14.3471 184 15.0486C184 15.3964 183.933 15.7408 183.802 16.0621C183.672 16.3833 183.48 16.6752 183.239 16.9209C182.998 17.1666 182.712 17.3613 182.397 17.4939C182.082 17.6265 181.744 17.6944 181.403 17.6938ZM181.403 12.8849C180.242 12.8849 179.308 13.8464 179.308 15.0486C179.308 16.2521 180.242 17.2123 181.403 17.2123C182.557 17.2123 183.509 16.2508 183.509 15.0486C183.509 13.845 182.555 12.8849 181.403 12.8849ZM181.017 15.4718V16.559H180.403V13.5382H181.574C182.15 13.5382 182.632 13.8464 182.632 14.4905C182.641 14.6779 182.591 14.8634 182.488 15.0194C182.386 15.1754 182.237 15.2937 182.064 15.3568L182.678 16.559H182.009L181.469 15.4718H181.017ZM182.009 14.5103C182.009 14.2114 181.762 14.1347 181.527 14.1347H181.017V14.8846H181.536C181.762 14.8846 182.009 14.7894 182.009 14.5103ZM76.6841 32.2421L67.821 18.6725V32.2421H63.8818V12.5661H68.4365L76.8072 25.407V12.5661H80.7463V32.2421H76.6841ZM83.093 25.5578C83.093 21.5623 86.3182 18.5217 90.3066 18.5217C94.2703 18.5217 97.4463 21.4869 97.4463 25.4824C97.4463 29.5282 94.2211 32.5437 90.2573 32.5437C86.2689 32.5437 83.093 29.6036 83.093 25.5578ZM87.0321 25.5076C87.0321 27.543 88.4847 28.9502 90.282 28.9502C92.0792 28.9502 93.5071 27.543 93.5071 25.5076C93.5071 23.4972 92.0546 22.09 90.2573 22.09C88.4601 22.09 87.0321 23.4972 87.0321 25.5076ZM106.863 18.8232V22.668C106.346 22.5675 105.804 22.5675 105.632 22.5675C103.785 22.5675 102.505 23.8742 102.505 26.3619V32.2421H98.7382V18.8232H102.382V20.7833H102.431C103.145 19.2504 104.475 18.6725 105.829 18.6725C106.124 18.6725 106.592 18.7479 106.863 18.8232ZM117.956 32.2421V30.5334H117.907C116.676 32.3678 114.706 32.4934 113.82 32.4934C110.004 32.4934 107.566 29.1261 107.566 25.5076C107.566 22.1151 110.102 18.5719 113.869 18.5719C114.632 18.5719 116.454 18.7227 117.808 20.3561H117.857V11.7871H121.673V32.2421H117.956ZM117.956 25.5076C117.956 23.4972 116.503 22.1151 114.706 22.1151C112.909 22.1151 111.456 23.4972 111.456 25.5076C111.456 27.543 112.909 28.9502 114.706 28.9502C116.503 28.9502 117.956 27.543 117.956 25.5076ZM129.835 32.2421L122.868 12.5661H127.177L132.174 27.5179L137.197 12.5661H141.431L134.439 32.2421H129.835ZM157.127 18.8735C157.127 23.2208 154.123 25.3065 150.086 25.3065H147.058V32.2421H143.069V12.5661H150.234C154.099 12.5661 157.127 14.7021 157.127 18.8735ZM153.114 18.974C153.114 17.0642 151.538 16.4109 149.889 16.4109H147.058V21.512H149.913C151.489 21.512 153.114 20.8084 153.114 18.974ZM171.936 32.2421L163.073 18.6725V32.2421H159.134V12.5661H163.689L172.06 25.407V12.5661H175.999V32.2421H171.936Z" fill="#1A1817"/>
<path fill-rule="evenodd" clip-rule="evenodd" d="M4.80736 41.5C1.67413 37.0911 -0.00894161 31.7819 3.57271e-05 26.3353C3.57271e-05 12.066 11.3096 0.5 25.2599 0.5C39.2115 0.5 50.5197 12.066 50.5197 26.3353C50.5288 31.7819 48.8458 37.0912 45.7124 41.5L33.58 21.3505L32.4087 23.374L33.5969 29.0003L25.2599 14.4122L20.1027 23.3172L21.3039 29.0003L16.9332 21.3611L4.80736 41.5Z" fill="#3E5FFF"/>
</g>
<defs>
<clipPath id="clip0_215_2346">
<rect width="184" height="41" fill="white" transform="translate(0 0.5)"/>
</clipPath>
</defs>
</svg>
