<svg viewBox="0 0 22 22" xmlns="http://www.w3.org/2000/svg">
<path d="M10.8333 0C16.8133 0 21.6667 4.85333 21.6667 10.8333C21.6667 16.8242 16.8133 21.6667 10.8333 21.6667C4.8425 21.6667 0 16.8242 0 10.8333C0 4.85333 4.8425 0 10.8333 0ZM15.0042 7.26917C15.1233 6.89 14.7767 6.5325 14.3975 6.65167L8.85083 8.385C8.62333 8.46083 8.43917 8.63417 8.37417 8.86167L6.64083 14.4192C6.52167 14.7875 6.87917 15.145 7.2475 15.0258L12.7725 13.2925C13 13.2275 13.1842 13.0433 13.2492 12.8158L15.0042 7.26917Z" fill="currentColor"/>
</svg>
