<svg viewBox="0 0 24 23" fill="none" xmlns="http://www.w3.org/2000/svg">
<path d="M17.1526 0H6.84699C3.34726 0 0.5 2.8474 0.5 6.34713V16.6527C0.5 20.1526 3.34726 22.9999 6.84699 22.9999H17.1526C20.6526 22.9999 23.4999 20.1525 23.4999 16.6527V6.34713C23.5 2.8474 20.6526 0 17.1526 0ZM21.4593 16.6527C21.4593 19.0274 19.5274 20.9592 17.1527 20.9592H6.84699C4.47248 20.9593 2.54066 19.0274 2.54066 16.6527V6.34713C2.54066 3.97262 4.47248 2.04066 6.84699 2.04066H17.1526C19.5272 2.04066 21.4592 3.97262 21.4592 6.34713V16.6527H21.4593Z" fill="currentColor"/>
<path d="M12 5.57373C8.73206 5.57373 6.07349 8.2323 6.07349 11.5002C6.07349 14.768 8.73206 17.4264 12 17.4264C15.2679 17.4264 17.9265 14.768 17.9265 11.5002C17.9265 8.2323 15.2679 5.57373 12 5.57373ZM12 15.3856C9.85741 15.3856 8.11415 13.6426 8.11415 11.5001C8.11415 9.35738 9.85728 7.61425 12 7.61425C14.1427 7.61425 15.8858 9.35738 15.8858 11.5001C15.8858 13.6426 14.1425 15.3856 12 15.3856Z" fill="currentColor"/>
<path d="M18.175 3.84326C17.7818 3.84326 17.3956 4.00243 17.1179 4.28132C16.8389 4.55885 16.6785 4.94522 16.6785 5.33975C16.6785 5.73305 16.839 6.11928 17.1179 6.39817C17.3954 6.6757 17.7818 6.83623 18.175 6.83623C18.5695 6.83623 18.9545 6.6757 19.2334 6.39817C19.5123 6.11928 19.6714 5.73291 19.6714 5.33975C19.6714 4.94522 19.5123 4.55885 19.2334 4.28132C18.9558 4.00243 18.5695 3.84326 18.175 3.84326Z" fill="currentColor"/>
</svg>
