<svg viewBox="0 0 24 25" fill="none" xmlns="http://www.w3.org/2000/svg">
<path d="M2.88459 0.5C1.29052 0.5 0.000257898 1.79259 0 3.38304C0 4.97505 1.29026 6.26738 2.88485 6.26738C4.47505 6.26738 5.76712 4.97505 5.76712 3.38304C5.76712 1.79233 4.47479 0.5 2.88459 0.5Z" fill="currentColor"/>
<path d="M5.37069 8.45508H0.396606V24.4587H5.37069V8.45508Z" fill="currentColor"/>
<path d="M18.0335 8.05713C15.6139 8.05713 13.9915 9.38376 13.3274 10.6418H13.2608V8.45507H8.49025H8.48999V24.4584H13.4597V16.5415C13.4597 14.4543 13.8571 12.4326 16.4449 12.4326C18.9955 12.4326 19.0295 14.8197 19.0295 16.6753V24.4582H24V15.6803C24 11.3716 23.0703 8.05713 18.0335 8.05713Z" fill="currentColor"/>
</svg>
