<svg width="169" height="39" viewBox="0 0 169 39" fill="none" xmlns="http://www.w3.org/2000/svg">
<path d="M0 0H2.6637V38.3984H0V0Z" fill="black"/>
<path d="M30.4352 8.50993H33.0989V38.3984H31.3196L30.7265 34.4444C25.3367 41.4184 9.16724 40.0589 9.22967 29.1309V8.50993H11.8934V30.3036C11.8934 41.709 30.4248 40.2872 30.4248 29.1205V8.50993H30.4352Z" fill="black"/>
<path d="M42.401 38.3984H39.7373V8.5099H41.5166L42.0472 12.2875C46.2509 6.55885 56.9161 6.67301 60.2249 13.2319C63.9603 6.206 76.2695 5.90504 79.4743 16.1273L86.5185 38.3984H83.7299L76.1446 14.6537C73.2416 5.5003 61.2238 7.21266 61.2238 17.7878V38.3984H58.5601V16.5943C58.5601 5.0748 42.3906 6.67301 42.3906 17.7774V38.388L42.401 38.3984Z" fill="black"/>
<path d="M114.06 31.6632V35.1501C111.334 37.2776 107.661 38.689 102.927 38.689C80.7744 38.689 80.7744 8.1571 102.927 8.1571C110.689 8.1571 115.184 13.0555 116.849 18.2548H90.0869C87.4232 26.8789 91.6893 38.1597 102.937 38.1597C108.15 38.1597 111.886 35.1501 114.071 31.6632H114.06ZM113.821 17.7256C112.458 12.9413 108.91 8.68638 102.927 8.68638C96.2363 8.68638 92.0327 12.7026 90.2534 17.7256H113.821Z" fill="black"/>
<path d="M122.832 38.3985H120.168V8.50996H121.947L122.478 12.2875C125.974 7.742 133.851 7.26461 138.294 9.45436V12.7027C133.029 6.7976 122.832 7.32688 122.832 17.7775V38.3881V38.3985Z" fill="black"/>
<path d="M161.445 16.1274L168.49 38.3984H165.711L163.048 30.1272C161.747 34.7973 157.367 38.689 150.021 38.689C131.427 38.689 131.427 15.2452 150.021 15.2452C153.933 15.2452 157.013 16.3661 159.26 18.1407L158.137 14.6537C156.659 9.98362 153.454 8.74865 149.958 8.74865C147.18 8.74865 144.215 10.9384 142.914 12.1111V9.1015C144.339 8.68638 147.773 8.1571 149.958 8.1571C154.401 8.21937 159.614 10.3987 161.445 16.1274ZM150.01 15.7745C135.381 15.7745 135.381 38.1597 150.01 38.1597C164.64 38.1597 165.233 15.7745 150.01 15.7745Z" fill="black"/>
</svg>
