<svg viewBox="0 0 28 26" fill="none" xmlns="http://www.w3.org/2000/svg">
<path d="M3.53058 21.0498H0.116211V18.5498H3.53058C7.04352 18.5498 10.0949 16.1331 10.8995 12.7135C11.9698 8.16465 16.0288 4.9498 20.7019 4.9498H23.0984L20.8323 2.68368L22.6001 0.915911L27.884 6.1998L22.6001 11.4837L20.8323 9.71592L23.0984 7.4498H20.7019C17.189 7.4498 14.1376 9.86654 13.333 13.2861C12.2627 17.8349 8.20365 21.0498 3.53058 21.0498ZM0.116211 4.94971H3.53058C5.96083 4.94971 8.22501 5.81918 9.98913 7.29359L8.21196 9.07076C6.91244 8.04813 5.27865 7.44971 3.53058 7.44971H0.116211V4.94971ZM13.7496 18.2649L15.5181 16.4965C16.8855 17.7807 18.7203 18.5497 20.7019 18.5497H23.0984L20.8323 16.2836L22.6001 14.5158L27.884 19.7997L22.6001 25.0836L20.8323 23.3158L23.0984 21.0497H20.7019C18.0385 21.0497 15.5745 20.0054 13.7496 18.2649Z" fill="currentColor"/>
</svg>
