<svg viewBox="0 0 20 23" fill="none" xmlns="http://www.w3.org/2000/svg">
<path d="M17.5094 4.91888C17.3536 4.83865 17.202 4.75069 17.0551 4.65535C16.6279 4.37383 16.2361 4.04212 15.8884 3.66736C15.0183 2.67505 14.6933 1.66838 14.5736 0.963556H14.5784C14.4784 0.378523 14.5198 0 14.526 0H10.563V15.2741C10.563 15.4792 10.563 15.6819 10.5543 15.8821C10.5543 15.9071 10.5519 15.9301 10.5505 15.9569C10.5505 15.9679 10.5505 15.9794 10.5481 15.9909C10.5481 15.9938 10.5481 15.9967 10.5481 15.9995C10.5063 16.5476 10.33 17.077 10.0348 17.5412C9.73956 18.0054 9.3344 18.3902 8.85495 18.6617C8.35526 18.945 7.7901 19.0936 7.21521 19.0929C5.36875 19.0929 3.87227 17.5922 3.87227 15.7389C3.87227 13.8856 5.36875 12.3849 7.21521 12.3849C7.56473 12.3846 7.9121 12.4394 8.24443 12.5473L8.24924 8.52539C7.24038 8.3955 6.21546 8.47541 5.23914 8.76009C4.26282 9.04477 3.35628 9.52803 2.57672 10.1794C1.89365 10.7709 1.31938 11.4768 0.879775 12.2651C0.712483 12.5526 0.0812958 13.7078 0.00486099 15.5827C-0.0432112 16.6469 0.27743 17.7494 0.4303 18.205V18.2146C0.526444 18.4829 0.899003 19.3986 1.50615 20.1705C1.99574 20.7897 2.57417 21.3336 3.22281 21.7847V21.7751L3.23243 21.7847C5.15099 23.0841 7.27818 22.9989 7.27818 22.9989C7.64641 22.984 8.87995 22.9989 10.2808 22.3372C11.8345 21.6036 12.719 20.5107 12.719 20.5107C13.2841 19.8576 13.7334 19.1134 14.0477 18.31C14.4063 17.3704 14.526 16.2434 14.526 15.793V7.68976C14.5741 7.71851 15.2144 8.14063 15.2144 8.14063C15.2144 8.14063 16.1369 8.72998 17.5762 9.11377C18.6088 9.38689 20 9.44438 20 9.44438V5.52308C19.5125 5.57578 18.5227 5.42246 17.5094 4.91888Z" fill="currentColor"/>
</svg>
