<svg viewBox="0 0 38 38" xmlns="http://www.w3.org/2000/svg">
<path d="M28.1176 21.8353C28.0436 21.7997 25.2733 20.4356 24.781 20.2584C24.58 20.1862 24.3647 20.1158 24.1357 20.1158C23.7616 20.1158 23.4474 20.3022 23.2026 20.6684C22.9259 21.0797 22.0882 22.059 21.8293 22.3515C21.7955 22.3901 21.7494 22.4362 21.7217 22.4362C21.6969 22.4362 21.2682 22.2597 21.1384 22.2033C18.1666 20.9124 15.9109 17.8081 15.6016 17.2847C15.5575 17.2094 15.5556 17.1752 15.5553 17.1752C15.5661 17.1354 15.666 17.0352 15.7176 16.9835C15.8685 16.8342 16.032 16.6374 16.1901 16.447C16.265 16.3569 16.3401 16.2665 16.4137 16.1814C16.6432 15.9144 16.7453 15.7072 16.8638 15.4671L16.9258 15.3423C17.215 14.7678 16.968 14.2829 16.8882 14.1263C16.8227 13.9953 15.653 11.1722 15.5286 10.8756C15.2295 10.1599 14.8344 9.82666 14.2852 9.82666C14.2343 9.82666 14.2852 9.82666 14.0715 9.83567C13.8113 9.84665 12.3943 10.0332 11.7678 10.4281C11.1035 10.847 9.97949 12.1822 9.97949 14.5303C9.97949 16.6436 11.3206 18.639 11.8964 19.3978C11.9107 19.417 11.937 19.4558 11.9751 19.5116C14.1802 22.732 16.9292 25.1186 19.7159 26.2318C22.3987 27.3034 23.6691 27.4273 24.3914 27.4273H24.3915C24.695 27.4273 24.9379 27.4035 25.1522 27.3824L25.2882 27.3695C26.215 27.2873 28.2517 26.2319 28.715 24.9445C29.0799 23.9305 29.1762 22.8225 28.9333 22.4205C28.767 22.147 28.4804 22.0095 28.1176 21.8353Z" fill="currentColor"/>
<path d="M19.3373 0C9.0457 0 0.672867 8.30991 0.672867 18.5241C0.672867 21.8278 1.55698 25.0616 3.23182 27.8919L0.0261272 37.3481C-0.0335871 37.5244 0.0108285 37.7193 0.141238 37.8521C0.235374 37.9482 0.363069 38 0.493478 38C0.543445 38 0.593783 37.9925 0.642887 37.9768L10.5031 34.8435C13.2014 36.2852 16.251 37.0462 19.3374 37.0462C29.628 37.0463 38 28.7373 38 18.5241C38 8.30991 29.628 0 19.3373 0ZM19.3373 33.1876C16.4331 33.1876 13.6203 32.349 11.2023 30.7624C11.121 30.7089 11.0266 30.6815 10.9316 30.6815C10.8814 30.6815 10.8311 30.6892 10.7821 30.7047L5.84272 32.2748L7.43724 27.5706C7.48881 27.4184 7.46302 27.2504 7.36802 27.1206C5.52675 24.6048 4.55343 21.6322 4.55343 18.5241C4.55343 10.4377 11.1854 3.85873 19.3372 3.85873C27.4879 3.85873 34.1192 10.4377 34.1192 18.5241C34.1193 26.6096 27.4882 33.1876 19.3373 33.1876Z" fill="currentColor"/>
</svg>
